<svg xmlns="http://www.w3.org/2000/svg" width="2732" height="2732" viewBox="0 0 2732 2732">
  <defs>
    <radialGradient id="bg" cx="50%" cy="36%" r="72%">
      <stop offset="0" stop-color="#2b3a61" />
      <stop offset="0.58" stop-color="#151c30" />
      <stop offset="1" stop-color="#080b12" />
    </radialGradient>
    <filter id="glow" x="-50%" y="-50%" width="200%" height="200%">
      <feGaussianBlur stdDeviation="24" />
    </filter>
  </defs>
  <rect width="2732" height="2732" fill="url(#bg)" />
  <circle cx="1366" cy="1220" r="770" fill="none" stroke="#53618a" stroke-width="34" opacity="0.35" />
  <circle cx="1366" cy="1220" r="620" fill="none" stroke="#9bf6ff" stroke-width="20" opacity="0.18" />
  <path d="M596 1220H2136M1366 450V1990M820 674L1912 1766M1912 674L820 1766" stroke="#53618a" stroke-width="22" opacity="0.18" />
  <circle cx="1740" cy="910" r="190" fill="#9bf6ff" opacity="0.15" filter="url(#glow)" />
  <g transform="translate(604 360) scale(1.48)" stroke-linejoin="round">
    <circle cx="512" cy="512" r="298" fill="none" stroke="#ffd166" stroke-width="24" />
    <path d="M512 202L318 644H706L590 492Z" fill="#24203b" stroke="#0a0d15" stroke-width="30" />
    <path d="M512 245L367 603H653L562 479Z" fill="#6b4bbb" />
    <path d="M421 487L563 479L596 553L390 553Z" fill="#8b69df" opacity="0.72" />
    <rect x="282" y="620" width="460" height="102" rx="26" fill="#24203b" stroke="#0a0d15" stroke-width="30" />
    <rect x="322" y="640" width="380" height="54" rx="14" fill="#5b3d9a" />
    <rect x="455" y="715" width="114" height="116" rx="18" fill="#f4c38b" stroke="#0a0d15" stroke-width="24" />
    <rect x="478" y="758" width="24" height="24" fill="#30243c" />
    <rect x="522" y="758" width="24" height="24" fill="#30243c" />
    <path d="M742 428V782" stroke="#253044" stroke-width="44" stroke-linecap="round" />
    <circle cx="742" cy="390" r="76" fill="#9bf6ff" stroke="#0a0d15" stroke-width="26" />
    <circle cx="720" cy="366" r="22" fill="#e0fbff" />
    <rect x="488" y="648" width="48" height="46" fill="#ffd166" />
  </g>
  <rect x="886" y="2130" width="960" height="34" rx="17" fill="#ffd166" opacity="0.92" />
  <rect x="1036" y="2210" width="660" height="18" rx="9" fill="#9bf6ff" opacity="0.58" />
  <circle cx="966" cy="2219" r="18" fill="#9bf6ff" opacity="0.58" />
  <circle cx="1766" cy="2219" r="18" fill="#9bf6ff" opacity="0.58" />
</svg>
